<svg width="51" height="50" viewBox="0 0 51 50" fill="none" xmlns="http://www.w3.org/2000/svg">
<circle cx="6.25" cy="6.25" r="6.25" transform="matrix(-1 0 0 1 32.7578 18.749)" stroke="white" stroke-width="3.125"/>
<path d="M38.4911 11.1032C39.1483 11.1573 39.8065 11.1062 40.4408 10.9566C41.1243 10.7955 41.8772 10.9176 42.3341 11.4508C44.0032 13.3987 45.3189 15.6584 46.1819 18.1304C46.4428 18.8779 46.0635 19.6699 45.4524 20.1734C44.0612 21.3197 43.1741 23.0559 43.1741 24.9993C43.1741 26.9428 44.0612 28.679 45.4524 29.8253C46.0635 30.3288 46.4428 31.1208 46.1819 31.8683C45.319 34.3401 44.0035 36.5995 42.3346 38.5472C41.8777 39.0806 41.1247 39.2026 40.4412 39.0414C38.9458 38.6888 37.3182 38.8833 35.8826 39.7122C34.3204 40.6141 33.2948 42.0887 32.918 43.7177C32.7596 44.4028 32.3159 45.0247 31.6343 45.1972C29.9942 45.6122 28.2766 45.8327 26.5075 45.8327C24.7385 45.8327 23.021 45.6122 21.381 45.1972C20.6993 45.0247 20.2556 44.4028 20.0972 43.7178C19.9861 43.2377 19.8188 42.771 19.5979 42.3285M33.4995 7.82829C33.2378 7.33932 33.0427 6.81849 32.9183 6.28082C32.7598 5.59588 32.3161 4.97408 31.6345 4.80161C29.9944 4.38654 28.2767 4.16602 26.5075 4.16602C24.7384 4.16602 23.0209 4.38651 21.3808 4.80152C20.6992 4.97399 20.2555 5.5958 20.097 6.28077C19.7202 7.90958 18.6947 9.38394 17.1326 10.2858C15.6971 11.1146 14.0696 11.3092 12.5743 10.9566C11.8908 10.7954 11.1379 10.9175 10.681 11.4508C9.01186 13.3987 7.69613 15.6583 6.83313 18.1303C6.57216 18.8779 6.9515 19.6699 7.56258 20.1733C8.95387 21.3196 9.8409 23.0559 9.8409 24.9993C9.8409 26.9428 8.95386 28.679 7.56258 29.8254C6.9515 30.3288 6.57216 31.1208 6.83313 31.8684C7.69603 34.3401 9.01156 36.5995 10.6804 38.5473C11.1374 39.0806 11.8904 39.2027 12.5739 39.0415C13.2811 38.8747 14.0178 38.8303 14.7498 38.9174" stroke="white" stroke-width="3.125" stroke-linecap="round"/>
</svg>
