<svg width="25" height="24" viewBox="0 0 25 24" fill="none" xmlns="http://www.w3.org/2000/svg">
<path d="M17.4996 9.06092L16.7505 9.09719L17.4996 9.06092ZM7.49961 9.06092L8.24874 9.09719L7.49961 9.06092ZM13.8374 2.52453L14.3706 1.99713L13.8374 2.52453ZM11.1619 2.52453L10.6286 1.99712L11.1619 2.52453ZM9.03734 16.4637L9.72379 16.1616V16.1616L9.03734 16.4637ZM15.9619 16.4637L15.2754 16.1616L15.9619 16.4637ZM8.35203 12.974C7.93782 12.974 7.60203 13.3098 7.60203 13.724C7.60203 14.1382 7.93782 14.474 8.35203 14.474V12.974ZM16.4996 14.474C16.9138 14.474 17.2496 14.1382 17.2496 13.724C17.2496 13.3098 16.9138 12.974 16.4996 12.974V14.474ZM19.9996 16.5H19.2496H19.9996ZM17.8996 17.8431L17.4647 18.4541L17.4924 18.4739L17.5219 18.4911L17.8996 17.8431ZM19.5996 13.1023L19.9773 12.4543L19.9417 12.4336L19.904 12.4168L19.5996 13.1023ZM5.09961 13.724H5.84961H5.09961ZM5.09961 16.5H4.34961H5.09961ZM7.09961 17.8432L7.4773 18.4911L7.50677 18.4739L7.53456 18.4541L7.09961 17.8432ZM5.49961 13.1023L5.18264 12.4226L5.15156 12.4371L5.12192 12.4543L5.49961 13.1023ZM9.40443 3.54364C9.15239 3.87235 9.21454 4.34314 9.54325 4.59518C9.87196 4.84722 10.3427 4.78507 10.5948 4.45636L9.40443 3.54364ZM8.82228 6.96626C8.99571 6.59011 8.83138 6.14458 8.45523 5.97114C8.07907 5.7977 7.63354 5.96203 7.4601 6.33818L8.82228 6.96626ZM14.1534 17.25H10.8458V18.75H14.1534L14.1534 17.25ZM16.7505 9.09719C16.8006 10.1326 16.5908 11.5487 16.2755 12.9162C15.9615 14.2779 15.5622 15.51 15.2754 16.1616L16.6483 16.7659C16.986 15.9986 17.4108 14.6687 17.7371 13.2533C18.0621 11.8438 18.3089 10.2679 18.2487 9.02465L16.7505 9.09719ZM9.72379 16.1616C9.437 15.51 9.03772 14.2779 8.72375 12.9162C8.40842 11.5487 8.1986 10.1326 8.24874 9.09719L6.75049 9.02465C6.6903 10.2679 6.93711 11.8438 7.26211 13.2533C7.58847 14.6687 8.01322 15.9986 8.35088 16.7659L9.72379 16.1616ZM13.3041 3.05193C14.002 3.75758 14.8473 4.71427 15.5288 5.78776C16.2155 6.8696 16.6979 8.01094 16.7505 9.09719L18.2487 9.02465C18.1783 7.57094 17.5491 6.17152 16.7952 4.98387C16.036 3.78788 15.1116 2.74635 14.3706 1.99713L13.3041 3.05193ZM14.3706 1.99713C13.8611 1.48195 13.161 1.25 12.4996 1.25C11.8383 1.25 11.1382 1.48195 10.6286 1.99712L11.6951 3.05193C11.8773 2.86774 12.1691 2.75 12.4996 2.75C12.8301 2.75 13.1219 2.86774 13.3041 3.05193L14.3706 1.99713ZM10.8458 17.25C10.7233 17.25 10.5161 17.1701 10.2585 16.9191C10.0131 16.68 9.81848 16.3767 9.72379 16.1616L8.35088 16.7659C8.5196 17.1492 8.82232 17.6141 9.2118 17.9935C9.58905 18.361 10.1544 18.75 10.8458 18.75V17.25ZM14.1534 18.75C14.8448 18.75 15.4102 18.361 15.7874 17.9935C16.1769 17.6141 16.4796 17.1492 16.6483 16.7659L15.2754 16.1616C15.1807 16.3767 14.9862 16.68 14.7407 16.9191C14.4831 17.1701 14.2759 17.25 14.1534 17.25L14.1534 18.75ZM8.35203 14.474H16.4996V12.974H8.35203V14.474ZM19.2496 13.724V16.5H20.7496V13.724H19.2496ZM17.1952 12.8551L19.2952 13.7877L19.904 12.4168L17.804 11.4842L17.1952 12.8551ZM19.2496 16.5C19.2496 16.7517 19.1905 16.9021 19.1332 16.9913C19.0754 17.0813 18.9947 17.1473 18.8927 17.1926C18.6553 17.2979 18.3851 17.258 18.2773 17.1952L17.5219 18.4911C18.0734 18.8125 18.8532 18.851 19.5009 18.5637C20.2207 18.2445 20.7496 17.5399 20.7496 16.5H19.2496ZM20.7496 13.724C20.7496 13.1573 20.4075 12.7051 19.9773 12.4543L19.2219 13.7502C19.2565 13.7704 19.2654 13.7854 19.2633 13.7822C19.2622 13.7805 19.2586 13.7744 19.2553 13.7637C19.252 13.7527 19.2496 13.7391 19.2496 13.724H20.7496ZM4.34961 13.724L4.34961 16.5H5.84961L5.84961 13.724H4.34961ZM7.18264 11.4899L5.18264 12.4226L5.81658 13.782L7.81658 12.8494L7.18264 11.4899ZM4.34961 16.5C4.34961 17.5111 4.827 18.2249 5.53331 18.5569C6.17238 18.8573 6.93297 18.8084 7.4773 18.4911L6.72192 17.1952C6.60701 17.2622 6.36761 17.2916 6.17148 17.1994C6.0877 17.16 6.01643 17.1005 5.96222 17.0103C5.90728 16.9189 5.84961 16.7618 5.84961 16.5H4.34961ZM5.84961 13.724C5.84961 13.7392 5.84725 13.7528 5.84391 13.7637C5.84063 13.7744 5.83706 13.7805 5.83593 13.7823C5.83386 13.7855 5.8427 13.7704 5.8773 13.7503L5.12192 12.4543C4.69172 12.7051 4.34961 13.1573 4.34961 13.724H5.84961ZM10.5948 4.45636C11.1922 3.67723 11.2503 3.50164 11.6951 3.05193L10.6286 1.99712C10.0987 2.53296 9.88021 2.92314 9.40443 3.54364L10.5948 4.45636ZM8.24874 9.09719C8.28227 8.40464 8.49072 7.68533 8.82228 6.96626L7.4601 6.33818C7.07317 7.17736 6.79586 8.08778 6.75049 9.02465L8.24874 9.09719ZM18.3346 17.2321L16.3968 15.8527L15.5269 17.0747L17.4647 18.4541L18.3346 17.2321ZM7.53456 18.4541L9.47229 17.0747L8.60239 15.8527L6.66466 17.2322L7.53456 18.4541Z" fill="white"/>
<path d="M10.5 8C10.5 9.10457 11.3954 10 12.5 10C13.6046 10 14.5 9.10457 14.5 8C14.5 6.89543 13.6046 6 12.5 6C11.3954 6 10.5 6.89543 10.5 8Z" stroke="white" stroke-width="1.5"/>
<path d="M10 21.5H15" stroke="white" stroke-width="1.5" stroke-linecap="round"/>
</svg>
