<svg width="24" height="24" viewBox="0 0 24 24" fill="none" xmlns="http://www.w3.org/2000/svg">
<path d="M9.105 21.99H6.21C3.89 21.99 2 20.09 2 17.77V10.36C2 9.23004 2.73 7.74004 3.63 7.04004L9.02 2.84004C10.37 1.79004 12.62 1.74004 14.02 2.72004L20.2 7.05004C21.19 7.74004 22 9.29004 22 10.5V17.78C22 20.09 20.11 21.99 17.79 21.99H15.4885C15.1012 21.99 14.7232 21.8778 14.3965 21.6698C11.9469 20.1099 7.5052 17.4085 6 14.5C5.57366 13.6762 5.5 12.8358 5.5 12C5.5 8 10.5 7 12 10C13.5 7.05004 18.5 8 18.5 12C18.5 12.9521 18.5 13.5 18 14.5C17.5 15.5 16.2485 17.0628 15 18" stroke="white" stroke-width="1.5" stroke-linecap="round" stroke-linejoin="round"/>
</svg>
