<svg width="28" height="28" viewBox="0 0 28 28" fill="none" xmlns="http://www.w3.org/2000/svg">
<g clip-path="url(#clip0_601_5143)">
<path d="M20.8414 4.54572L21.6446 4.20455C21.9095 4.08868 22.201 4.04731 22.4877 4.08489C22.7744 4.12247 23.0454 4.23758 23.2714 4.41781C23.4975 4.59804 23.6701 4.83656 23.7707 5.10766C23.8712 5.37875 23.8958 5.67214 23.8419 5.9562L22.9965 10.271L26.0968 13.7783C26.297 14.0084 26.4274 14.2908 26.4726 14.5923C26.5179 14.8939 26.4762 15.2022 26.3523 15.4808C26.2242 15.7582 26.0206 15.994 25.7648 16.1612C25.5091 16.3285 25.2115 16.4204 24.906 16.4266L20.1147 16.5363L17.6242 20.6307C17.4661 20.8922 17.2376 21.104 16.9649 21.2419C16.6922 21.3797 16.3863 21.4382 16.0819 21.4105C15.7787 21.3784 15.4909 21.2604 15.2523 21.0704C15.0138 20.8804 14.8344 20.6263 14.7353 20.3379L13.2479 15.8993L9.08857 14.474C8.81561 14.3787 8.57384 14.2107 8.38933 13.9881C8.20482 13.7655 8.08456 13.4967 8.04151 13.2108C7.99847 12.9249 8.03428 12.6327 8.14507 12.3656C8.25586 12.0985 8.43744 11.8668 8.67024 11.6953L11.4585 9.59534L11.6571 4.62611C11.667 4.3525 11.7462 4.08588 11.8874 3.85127C12.0285 3.61666 12.2269 3.42177 12.4641 3.28487C12.7012 3.14798 12.9692 3.07357 13.2429 3.06864C13.5167 3.06371 13.7872 3.12842 14.0291 3.25668L16.2305 4.41296L16.7808 4.70203" stroke="url(#paint0_linear_601_5143)" stroke-width="1.75" stroke-linecap="round" stroke-linejoin="round"/>
<path d="M7.58273 18.0384L2.33246 23.2886M11.0815 21.0817L8.50151 23.6619" stroke="url(#paint1_linear_601_5143)" stroke-width="1.75" stroke-linecap="round"/>
</g>
<defs>
<linearGradient id="paint0_linear_601_5143" x1="9.20495" y1="15.4458" x2="24.6252" y2="6.54284" gradientUnits="userSpaceOnUse">
<stop stop-color="#CFF4FF"/>
<stop offset="1" stop-color="#BABCFF"/>
</linearGradient>
<linearGradient id="paint1_linear_601_5143" x1="5.0715" y1="20.5496" x2="8.34265" y2="23.8207" gradientUnits="userSpaceOnUse">
<stop stop-color="#CFF4FF"/>
<stop offset="1" stop-color="#BABCFF"/>
</linearGradient>
<clipPath id="clip0_601_5143">
<rect width="28" height="28" fill="white"/>
</clipPath>
</defs>
</svg>
