<svg width="24" height="24" viewBox="0 0 24 24" fill="none" xmlns="http://www.w3.org/2000/svg">
<path d="M9.60512 10.1398C9.51813 10.1274 9.40629 10.1274 9.30687 10.1398C7.11969 10.0652 5.37988 8.27572 5.37988 6.07611C5.37988 3.82679 7.19425 2 9.456 2C11.7053 2 13.5321 3.82679 13.5321 6.07611C13.5197 8.27572 11.7923 10.0652 9.60512 10.1398Z" stroke="white" stroke-width="1.5" stroke-linecap="round" stroke-linejoin="round"/>
<path d="M11.9414 13.4667C11.0691 13.092 10.1341 12.8992 9.18985 12.8992C8.24562 12.8992 7.31064 13.092 6.43828 13.4667C5.56593 13.8415 4.77329 14.3907 4.10562 15.0831C3.43795 15.7754 2.90833 16.5974 2.54699 17.5021C2.18565 18.4067 1.99967 19.3763 1.99967 20.3555L9.18984 20.3555L10.2442 20.3555" stroke="white" stroke-width="1.5" stroke-linecap="round" stroke-linejoin="round"/>
<path d="M16.6727 14.1038C18.3537 13.7455 20.1451 14.4842 21.0509 16.0531C22.1075 17.8831 21.5834 20.192 19.9022 21.3987C19.7927 21.4773 19.6784 21.5512 19.5593 21.6199C19.4402 21.6887 19.3191 21.7508 19.1963 21.8063C17.3107 22.6589 15.0491 21.9583 13.9925 20.1283C13.1487 18.6668 13.3131 16.8999 14.2698 15.6328" stroke="white" stroke-width="1.5" stroke-linecap="round" stroke-linejoin="round"/>
<path d="M19.4287 15.3848L14.7134 21.7945" stroke="white" stroke-width="1.5"/>
</svg>
