<svg width="40" height="40" viewBox="0 0 40 40" fill="none" xmlns="http://www.w3.org/2000/svg">
<path d="M17.6051 18.1398C17.5181 18.1274 17.4063 18.1274 17.3069 18.1398C15.1197 18.0652 13.3799 16.2757 13.3799 14.0761C13.3799 11.8268 15.1942 10 17.456 10C19.7053 10 21.5321 11.8268 21.5321 14.0761C21.5197 16.2757 19.7923 18.0652 17.6051 18.1398Z" stroke="white" stroke-width="1.5" stroke-linecap="round" stroke-linejoin="round"/>
<path d="M19.9414 21.4667C19.0691 21.092 18.1341 20.8992 17.1898 20.8992C16.2456 20.8992 15.3106 21.092 14.4383 21.4667C13.5659 21.8415 12.7733 22.3907 12.1056 23.0831C11.438 23.7754 10.9083 24.5974 10.547 25.5021C10.1856 26.4067 9.99967 27.3763 9.99967 28.3555L17.1898 28.3555L18.2442 28.3555" stroke="white" stroke-width="1.5" stroke-linecap="round" stroke-linejoin="round"/>
<path d="M24.6727 22.1038C26.3537 21.7455 28.1451 22.4842 29.0509 24.0531C30.1075 25.8831 29.5834 28.192 27.9022 29.3987C27.7927 29.4773 27.6784 29.5512 27.5593 29.6199C27.4402 29.6887 27.3191 29.7508 27.1963 29.8063C25.3107 30.6589 23.0491 29.9583 21.9925 28.1283C21.1487 26.6668 21.3131 24.8999 22.2698 23.6328" stroke="white" stroke-width="1.5" stroke-linecap="round" stroke-linejoin="round"/>
<path d="M27.4287 23.3848L22.7134 29.7945" stroke="white" stroke-width="1.5"/>
</svg>
