<svg width="30" height="8" viewBox="0 0 30 8" fill="none" xmlns="http://www.w3.org/2000/svg">
<g id="Group 97">
<path id="Vector" d="M25.782 7.0625C27.3871 7.0625 28.6882 5.76133 28.6882 4.15625C28.6882 2.55117 27.3871 1.25 25.782 1.25C24.1769 1.25 22.8757 2.55117 22.8757 4.15625C22.8757 5.76133 24.1769 7.0625 25.782 7.0625Z" stroke="white" stroke-width="1.5" stroke-linecap="round" stroke-linejoin="round"/>
<path id="Vector_2" d="M15.0942 7.0625C16.6993 7.0625 18.0005 5.76133 18.0005 4.15625C18.0005 2.55117 16.6993 1.25 15.0942 1.25C13.4892 1.25 12.188 2.55117 12.188 4.15625C12.188 5.76133 13.4892 7.0625 15.0942 7.0625Z" stroke="white" stroke-width="1.5" stroke-linecap="round" stroke-linejoin="round"/>
<path id="Vector_3" d="M4.40625 7.0625C6.01133 7.0625 7.3125 5.76133 7.3125 4.15625C7.3125 2.55117 6.01133 1.25 4.40625 1.25C2.80117 1.25 1.5 2.55117 1.5 4.15625C1.5 5.76133 2.80117 7.0625 4.40625 7.0625Z" stroke="white" stroke-width="1.5" stroke-linecap="round" stroke-linejoin="round"/>
</g>
</svg>
