<svg width="40" height="40" viewBox="0 0 40 40" fill="none" xmlns="http://www.w3.org/2000/svg">
<g clip-path="url(#clip0_822_2253)">
<path d="M25.5004 23.2598H23.6504" stroke="url(#paint0_linear_822_2253)" stroke-width="1.5" stroke-linecap="round" stroke-linejoin="round"/>
<path d="M20.97 23.2598H14.5" stroke="url(#paint1_linear_822_2253)" stroke-width="1.5" stroke-linecap="round" stroke-linejoin="round"/>
<path d="M25.5007 18.5H19.9707" stroke="url(#paint2_linear_822_2253)" stroke-width="1.5" stroke-linecap="round" stroke-linejoin="round"/>
<path d="M17.27 18.5H14.5" stroke="url(#paint3_linear_822_2253)" stroke-width="1.5" stroke-linecap="round" stroke-linejoin="round"/>
<path d="M26.8628 13.2159C30.1727 16.3221 31.0397 21.4027 28.6721 25.5035C26.0794 29.9941 20.5297 31.7131 15.9026 29.621C15.6014 29.4848 15.3041 29.3325 15.0118 29.1638C14.7196 28.995 14.439 28.8137 14.1705 28.621C10.0451 25.6598 8.75892 19.9941 11.3516 15.5035C13.8563 11.1653 19.1207 9.41372 23.647 11.1861" stroke="url(#paint4_linear_822_2253)" stroke-width="1.5" stroke-linecap="round" stroke-linejoin="round"/>
</g>
<defs>
<linearGradient id="paint0_linear_822_2253" x1="23.6504" y1="23.7598" x2="25.5004" y2="23.7598" gradientUnits="userSpaceOnUse">
<stop stop-color="#CFF4FF"/>
<stop offset="1" stop-color="#BABCFF"/>
</linearGradient>
<linearGradient id="paint1_linear_822_2253" x1="14.5" y1="23.7598" x2="20.97" y2="23.7598" gradientUnits="userSpaceOnUse">
<stop stop-color="#CFF4FF"/>
<stop offset="1" stop-color="#BABCFF"/>
</linearGradient>
<linearGradient id="paint2_linear_822_2253" x1="19.9707" y1="19" x2="25.5007" y2="19" gradientUnits="userSpaceOnUse">
<stop stop-color="#CFF4FF"/>
<stop offset="1" stop-color="#BABCFF"/>
</linearGradient>
<linearGradient id="paint3_linear_822_2253" x1="14.5" y1="19" x2="17.27" y2="19" gradientUnits="userSpaceOnUse">
<stop stop-color="#CFF4FF"/>
<stop offset="1" stop-color="#BABCFF"/>
</linearGradient>
<linearGradient id="paint4_linear_822_2253" x1="11.3233" y1="15.5526" x2="28.6438" y2="25.5526" gradientUnits="userSpaceOnUse">
<stop stop-color="#CFF4FF"/>
<stop offset="1" stop-color="#BABCFF"/>
</linearGradient>
<clipPath id="clip0_822_2253">
<rect width="24" height="24" fill="white" transform="translate(8 8.5)"/>
</clipPath>
</defs>
</svg>
