<svg width="24" height="24" viewBox="0 0 24 24" fill="none" xmlns="http://www.w3.org/2000/svg">
<path fill-rule="evenodd" clip-rule="evenodd" d="M13.683 3.68451C13.1886 3.95832 12.7245 4.31427 12.3088 4.75235C12.2878 4.77447 12.265 4.79381 12.2409 4.8104C12.0722 4.92649 11.8381 4.90714 11.6912 4.75235C9.47421 2.41588 5.87975 2.41588 3.66275 4.75235C1.44575 7.08883 1.44575 10.877 3.66275 13.2135L9.82377 19.7065C11.0068 20.9532 12.9932 20.9532 14.1762 19.7065L20.3372 13.2135C22.5542 10.877 22.5543 7.08882 20.3373 4.75235C19.3824 3.74607 18.1721 3.17318 16.9263 3.03368C16.9066 3.03147 16.8869 3.02937 16.8672 3.02738C16.4856 2.98888 16.101 2.99098 15.7197 3.03368C15.6942 3.03653 15.6687 3.03957 15.6433 3.04278C14.9926 3.12501 14.3529 3.32575 13.7555 3.64502" fill="white" fill-opacity="0.3"/>
<path d="M20.3373 4.75235C22.5543 7.08882 22.5542 10.877 20.3372 13.2135L14.1762 19.7065C12.9932 20.9532 11.0068 20.9532 9.82377 19.7065L3.66275 13.2135C1.44575 10.877 1.44575 7.08883 3.66275 4.75235C5.87975 2.41588 9.47421 2.41588 11.6912 4.75235V4.75235C11.8591 4.92925 12.1409 4.92925 12.3088 4.75235V4.75235C12.7448 4.29289 13.234 3.92379 13.7555 3.64503C14.3763 3.31327 15.0427 3.10949 15.7197 3.03368C16.1207 2.98877 16.5254 2.98877 16.9263 3.03368" stroke="url(#paint0_linear_1653_1404)" stroke-width="1.5" stroke-linecap="round"/>
<defs>
<linearGradient id="paint0_linear_1653_1404" x1="2" y1="12.5" x2="22" y2="12.5" gradientUnits="userSpaceOnUse">
<stop stop-color="#CFF4FF"/>
<stop offset="1" stop-color="#BABCFF"/>
</linearGradient>
</defs>
</svg>
