<svg width="24" height="24" viewBox="0 0 24 24" fill="none" xmlns="http://www.w3.org/2000/svg">
<path d="M9.60414 10.1398C9.51715 10.1274 9.40531 10.1274 9.30589 10.1398C7.11871 10.0652 5.37891 8.27572 5.37891 6.07611C5.37891 3.82679 7.19327 2 9.45502 2C11.7043 2 13.5311 3.82679 13.5311 6.07611C13.5187 8.27572 11.7913 10.0652 9.60414 10.1398Z" stroke="url(#paint0_linear_1331_2253)" stroke-width="1.5" stroke-linecap="round" stroke-linejoin="round"/>
<path d="M11.9414 13.4667C11.0691 13.092 10.1341 12.8992 9.18985 12.8992C8.24562 12.8992 7.31064 13.092 6.43828 13.4667C5.56593 13.8415 4.77329 14.3907 4.10562 15.0831C3.43795 15.7754 2.90833 16.5974 2.54699 17.5021C2.18565 18.4067 1.99967 19.3763 1.99967 20.3555L9.18984 20.3555L10.2442 20.3555" stroke="url(#paint1_linear_1331_2253)" stroke-width="1.5" stroke-linecap="round" stroke-linejoin="round"/>
<path d="M16.6717 14.1038C18.3527 13.7455 20.1442 14.4842 21.05 16.0531C22.1065 17.8831 21.5824 20.192 19.9012 21.3987C19.7918 21.4773 19.6774 21.5512 19.5583 21.6199C19.4392 21.6887 19.3181 21.7508 19.1953 21.8063C17.3097 22.6589 15.0481 21.9583 13.9915 20.1283C13.1477 18.6668 13.3121 16.8999 14.2689 15.6328" stroke="url(#paint2_linear_1331_2253)" stroke-width="1.5" stroke-linecap="round" stroke-linejoin="round"/>
<path d="M19.4297 15.3848L14.7144 21.7945" stroke="url(#paint3_linear_1331_2253)" stroke-width="1.5"/>
<defs>
<linearGradient id="paint0_linear_1331_2253" x1="5.37891" y1="6.0699" x2="13.5311" y2="6.0699" gradientUnits="userSpaceOnUse">
<stop stop-color="#CFF4FF"/>
<stop offset="1" stop-color="#BABCFF"/>
</linearGradient>
<linearGradient id="paint1_linear_1331_2253" x1="11.9414" y1="16.6273" x2="1.99967" y2="16.6273" gradientUnits="userSpaceOnUse">
<stop stop-color="#CFF4FF"/>
<stop offset="1" stop-color="#BABCFF"/>
</linearGradient>
<linearGradient id="paint2_linear_1331_2253" x1="21.0994" y1="16.1388" x2="14.041" y2="20.214" gradientUnits="userSpaceOnUse">
<stop stop-color="#CFF4FF"/>
<stop offset="1" stop-color="#BABCFF"/>
</linearGradient>
<linearGradient id="paint3_linear_1331_2253" x1="16.4288" y1="16.1889" x2="17.7153" y2="20.9904" gradientUnits="userSpaceOnUse">
<stop stop-color="#CFF4FF"/>
<stop offset="1" stop-color="#BABCFF"/>
</linearGradient>
</defs>
</svg>
