<svg width="40" height="40" viewBox="0 0 40 40" fill="none" xmlns="http://www.w3.org/2000/svg">
<path d="M28 29.699H24.25H19.5H13C11.3431 29.699 10 28.3559 10 26.699V13.499C10 11.8422 11.3431 10.499 13 10.499H26C27.6569 10.499 29 11.8422 29 13.499V20.099V24.899V24.899C29 25.2923 28.5181 25.4821 28.2499 25.1944L24.8294 21.5251C24.0542 20.6935 22.8031 20.5172 21.8282 21.1021L14.5 25.499" stroke="white" stroke-width="1.5" stroke-linecap="round"/>
<path d="M17 18.499C18.1046 18.499 19 17.6036 19 16.499C19 15.3945 18.1046 14.499 17 14.499C15.8954 14.499 15 15.3945 15 16.499C15 17.6036 15.8954 18.499 17 18.499Z" stroke="white" stroke-width="1.5" stroke-linecap="round" stroke-linejoin="round"/>
</svg>
