<svg width="51" height="50" viewBox="0 0 51 50" fill="none" xmlns="http://www.w3.org/2000/svg">
<path d="M11.1694 27.343C5.72885 34.5563 3.28367 40.7915 5.45377 42.9616C8.51024 46.018 19.5135 39.9051 29.9055 29.3908C40.2975 18.8766 46.5327 7.99554 43.4763 4.93907C41.5201 2.95236 36.2019 4.93907 29.8138 9.24869" stroke="white" stroke-width="3.125" stroke-linecap="round" stroke-linejoin="round"/>
<path d="M39.9613 17.5303C41.0267 19.8592 41.4897 22.4185 41.3078 24.973C41.126 27.5276 40.305 29.9955 38.9204 32.15C37.5359 34.3044 35.632 36.0764 33.3839 37.3031C31.1357 38.5297 28.6154 39.1717 26.0544 39.1701C24.0084 39.1709 21.9825 38.7657 20.0942 37.9781" stroke="white" stroke-width="3.125" stroke-linecap="round" stroke-linejoin="round"/>
<path d="M13.828 33.0592C11.6208 30.1163 10.5492 26.4759 10.81 22.8064C11.0707 19.137 12.6464 15.6848 15.2476 13.0835C17.8488 10.4823 21.3011 8.90667 24.9705 8.64589C28.64 8.38511 32.2803 9.4567 35.2233 11.6639" stroke="white" stroke-width="3.125" stroke-linecap="round" stroke-linejoin="round"/>
</svg>
