<svg width="25" height="24" viewBox="0 0 25 24" fill="none" xmlns="http://www.w3.org/2000/svg">
<path d="M9.39677 7.79355C10.4443 7.79355 11.2935 6.94433 11.2935 5.89677C11.2935 4.84921 10.4443 4 9.39677 4C8.34921 4 7.5 4.84921 7.5 5.89677C7.5 6.94433 8.34921 7.79355 9.39677 7.79355Z" stroke="white" stroke-width="1.5" stroke-linecap="round" stroke-linejoin="round"/>
<path d="M15.9905 7.79355C17.0381 7.79355 17.8873 6.94433 17.8873 5.89677C17.8873 4.84921 17.0381 4 15.9905 4C14.943 4 14.0938 4.84921 14.0938 5.89677C14.0938 6.94433 14.943 7.79355 15.9905 7.79355Z" stroke="white" stroke-width="1.5" stroke-linecap="round" stroke-linejoin="round"/>
<path d="M20.5901 12.0624C21.6377 12.0624 22.4869 11.2132 22.4869 10.1656C22.4869 9.11807 21.6377 8.26886 20.5901 8.26886C19.5426 8.26886 18.6934 9.11807 18.6934 10.1656C18.6934 11.2132 19.5426 12.0624 20.5901 12.0624Z" stroke="white" stroke-width="1.5" stroke-linecap="round" stroke-linejoin="round"/>
<path d="M4.39677 12.0624C5.44433 12.0624 6.29355 11.2132 6.29355 10.1656C6.29355 9.11807 5.44433 8.26886 4.39677 8.26886C3.34921 8.26886 2.5 9.11807 2.5 10.1656C2.5 11.2132 3.34921 12.0624 4.39677 12.0624Z" stroke="white" stroke-width="1.5" stroke-linecap="round" stroke-linejoin="round"/>
<path d="M16 13.5L17 14.5L18.5371 16.2933C19.3963 17.2957 19.4608 18.7549 18.6934 19.8292V19.8292C17.9797 20.8284 16.7094 21.2628 15.5333 20.91L13.7914 20.3874C12.9536 20.1361 12.0565 20.1663 11.2375 20.4734L10.4009 20.7872C9.24324 21.2213 7.93871 20.9387 7.06447 20.0645V20.0645C5.89954 18.8995 5.8279 17.0341 6.90006 15.7833L8 14.5L9.5 13C11 11.5 12 10.5 13.5 11" stroke="white" stroke-width="1.5" stroke-linecap="round"/>
</svg>
