<svg width="22" height="22" viewBox="0 0 22 22" fill="none" xmlns="http://www.w3.org/2000/svg">
<path d="M8.80478 9.29547C8.72503 9.28407 8.62251 9.28407 8.53138 9.29547C6.52646 9.22712 4.93164 7.58673 4.93164 5.57042C4.93164 3.50855 6.59481 1.83398 8.66808 1.83398C10.73 1.83398 12.4045 3.50855 12.4045 5.57042C12.3931 7.58673 10.8097 9.22712 8.80478 9.29547Z" stroke="white" stroke-width="1.375" stroke-linecap="round" stroke-linejoin="round"/>
<path d="M10.9465 12.3445C10.1469 12.001 9.28981 11.8242 8.42427 11.8242C7.55873 11.8242 6.70166 12.001 5.902 12.3445C5.10235 12.688 4.37576 13.1915 3.76373 13.8261C3.1517 14.4608 2.66621 15.2143 2.33498 16.0436C2.00376 16.8728 1.83327 17.7616 1.83327 18.6592L8.42427 18.6592L9.39074 18.6592" stroke="white" stroke-width="1.375" stroke-linecap="round" stroke-linejoin="round"/>
<path d="M15.283 12.9288C16.8239 12.6004 18.4661 13.2775 19.2964 14.7157C20.2649 16.3932 19.7844 18.5097 18.2433 19.6158C18.143 19.6878 18.0382 19.7556 17.929 19.8186C17.8199 19.8816 17.7088 19.9385 17.5963 19.9894C15.8678 20.7709 13.7946 20.1288 12.8261 18.4513C12.0526 17.1116 12.2033 15.4919 13.0804 14.3304" stroke="white" stroke-width="1.375" stroke-linecap="round" stroke-linejoin="round"/>
<path d="M17.8098 14.1025L13.4874 19.9781" stroke="white" stroke-width="1.375"/>
</svg>
