<svg width="24" height="24" viewBox="0 0 24 24" fill="none" xmlns="http://www.w3.org/2000/svg">
<path d="M16.2867 3H8.31535L5.05436 10.6959C5.00926 10.8057 4.99181 10.9249 5.00356 11.043C5.0153 11.1611 5.05587 11.2745 5.12171 11.3733C5.18754 11.472 5.27663 11.5531 5.38114 11.6094C5.48564 11.6656 5.60237 11.6954 5.72105 11.696H9.76468L7.16734 20.7867C7.08347 21.0802 7.44055 21.2968 7.66214 21.0869L19.3158 10.0437C19.4192 9.94409 19.4906 9.81596 19.5211 9.67561C19.5516 9.53527 19.5396 9.38904 19.4868 9.25548C19.434 9.12193 19.3427 9.00707 19.2246 8.9255C19.1064 8.84392 18.9666 8.79931 18.823 8.79732H13.5L15 6" stroke="white" stroke-width="1.5" stroke-linecap="round" stroke-linejoin="round"/>
</svg>
