<svg width="25" height="24" viewBox="0 0 25 24" fill="none" xmlns="http://www.w3.org/2000/svg">
<path d="M2.33301 9.55769V7.5C2.33301 5.567 3.90001 4 5.83301 4H12.833C14.766 4 16.333 5.567 16.333 7.5V17.5C16.333 19.433 14.766 21 12.833 21H5.83301C3.90001 21 2.33301 19.433 2.33301 17.5V14.1346" stroke="white" stroke-width="1.5" stroke-linecap="round"/>
<path d="M16.333 14.8964H15.583V15.2921L15.9096 15.5154L16.333 14.8964ZM18.9976 8.82918C18.6271 9.01443 18.4769 9.46493 18.6622 9.83541C18.8474 10.2059 19.2979 10.3561 19.6684 10.1708L18.9976 8.82918ZM20.4555 17.7159L20.0321 18.335L20.4555 17.7159ZM20.5963 8.86835L20.2609 8.19753L20.5963 8.86835ZM20.8789 17.0969L16.7564 14.2773L15.9096 15.5154L20.0321 18.335L20.8789 17.0969ZM17.083 14.8964V12.1606H15.583V14.8964H17.083ZM21.583 9.94165V12H23.083V9.94165H21.583ZM21.583 15V16.7254H23.083V15H21.583ZM21.583 12V13.5H23.083V12H21.583ZM21.583 13.5V15H23.083V13.5H21.583ZM19.6684 10.1708L20.9317 9.53916L20.2609 8.19753L18.9976 8.82918L19.6684 10.1708ZM20.0321 18.335C21.3263 19.2202 23.083 18.2934 23.083 16.7254H21.583C21.583 17.0873 21.1776 17.3011 20.8789 17.0969L20.0321 18.335ZM23.083 9.94165C23.083 8.49205 21.5574 7.54924 20.2609 8.19753L20.9317 9.53916C21.2309 9.38956 21.583 9.60713 21.583 9.94165H23.083Z" fill="white"/>
</svg>
