<svg width="40" height="40" viewBox="0 0 40 40" fill="none" xmlns="http://www.w3.org/2000/svg">
<path d="M28 29.7H24.25H19.5H13C11.3431 29.7 10 28.3569 10 26.7V13.5C10 11.8431 11.3431 10.5 13 10.5H26C27.6569 10.5 29 11.8431 29 13.5V20.1V24.9V24.9C29 25.2933 28.5181 25.4831 28.2499 25.1954L24.8294 21.5261C24.0542 20.6945 22.8031 20.5181 21.8282 21.1031L14.5 25.5" stroke="url(#paint0_linear_601_5408)" stroke-width="1.5" stroke-linecap="round"/>
<path d="M17 18.5C18.1046 18.5 19 17.6046 19 16.5C19 15.3954 18.1046 14.5 17 14.5C15.8954 14.5 15 15.3954 15 16.5C15 17.6046 15.8954 18.5 17 18.5Z" stroke="url(#paint1_linear_601_5408)" stroke-width="1.5" stroke-linecap="round" stroke-linejoin="round"/>
<defs>
<linearGradient id="paint0_linear_601_5408" x1="10" y1="20.1" x2="29" y2="20.1" gradientUnits="userSpaceOnUse">
<stop stop-color="#CFF4FF"/>
<stop offset="1" stop-color="#BABCFF"/>
</linearGradient>
<linearGradient id="paint1_linear_601_5408" x1="15" y1="16.5" x2="19" y2="16.5" gradientUnits="userSpaceOnUse">
<stop stop-color="#CFF4FF"/>
<stop offset="1" stop-color="#BABCFF"/>
</linearGradient>
</defs>
</svg>
